<svg width="26" height="25" viewBox="0 0 26 25" fill="none" xmlns="http://www.w3.org/2000/svg">
<g id="Group 73">
<path id="LinkedIn" d="M0.813965 3.50483C0.813965 2.7233 1.08843 2.07855 1.63733 1.57057C2.18624 1.06258 2.89984 0.808594 3.77809 0.808594C4.64067 0.808594 5.33856 1.05866 5.87179 1.55885C6.4207 2.07465 6.69516 2.74674 6.69516 3.57517C6.69516 4.32543 6.42855 4.95063 5.89532 5.45081C5.34641 5.96662 4.62498 6.22452 3.73104 6.22452H3.70751C2.84493 6.22452 2.14704 5.96662 1.61381 5.45081C1.08057 4.93501 0.813965 4.28634 0.813965 3.50483ZM1.11979 24.0197V8.35806H6.34229V24.0197H1.11979ZM9.23583 24.0197H14.4583V15.2745C14.4583 14.7274 14.5211 14.3054 14.6465 14.0084C14.8661 13.477 15.1994 13.0276 15.6463 12.6603C16.0933 12.293 16.654 12.1094 17.3284 12.1094C19.0849 12.1094 19.9631 13.2894 19.9631 15.6496V24.0197H25.1856V15.04C25.1856 12.7267 24.6367 10.9722 23.5389 9.77652C22.4411 8.5808 20.9904 7.98293 19.1868 7.98293C17.1637 7.98293 15.5875 8.85042 14.4583 10.5854V10.6323H14.4348L14.4583 10.5854V8.35806H9.23583C9.26719 8.85823 9.28288 10.4134 9.28288 13.0237C9.28288 15.634 9.26719 19.2993 9.23583 24.0197Z" fill="white"/>
</g>
</svg>
