<svg width="36" height="37" viewBox="0 0 36 37" fill="none" xmlns="http://www.w3.org/2000/svg">
<g id="Social Media Icon/Twitter">
<path id="Twitter" d="M22.2791 8.09638V8.0918H23.4721L23.9081 8.17886C24.1987 8.23538 24.4625 8.30945 24.6996 8.4011C24.9367 8.49275 25.1661 8.59967 25.3879 8.72186C25.6097 8.84404 25.8108 8.96854 25.9913 9.09531C26.1703 9.22057 26.3309 9.35346 26.4731 9.49397C26.6138 9.63602 26.8333 9.67268 27.1316 9.60394C27.4298 9.53521 27.751 9.43974 28.0952 9.31755C28.4393 9.19537 28.7797 9.0579 29.1161 8.90515C29.4526 8.7524 29.6576 8.65542 29.731 8.61418C29.8029 8.57142 29.8412 8.54851 29.8457 8.54544L29.8503 8.53857L29.8733 8.52711L29.8962 8.51566L29.9191 8.5042L29.9421 8.49275L29.9467 8.48587L29.9536 8.48129L29.9605 8.47671L29.965 8.46983L29.988 8.46296L30.0109 8.45838L30.0063 8.49275L29.9994 8.52711L29.988 8.56148L29.9765 8.59585L29.965 8.61876L29.9536 8.64167L29.9421 8.67604C29.9344 8.69895 29.9268 8.72949 29.9191 8.76768C29.9115 8.80587 29.8388 8.9586 29.7012 9.22591C29.5635 9.49321 29.3914 9.76432 29.185 10.0393C28.9785 10.3142 28.7934 10.5219 28.6298 10.6624C28.4646 10.8045 28.3552 10.9038 28.3017 10.9603C28.2481 11.0183 28.1831 11.0718 28.1066 11.1207L27.9919 11.1963L27.969 11.2077L27.946 11.2192L27.9415 11.2261L27.9346 11.2306L27.9277 11.2352L27.9231 11.2421L27.9002 11.2536L27.8772 11.265L27.8726 11.2719L27.8657 11.2765L27.8589 11.2811L27.8543 11.2879L27.8497 11.2948L27.8428 11.2994L27.8359 11.304L27.8313 11.3108H27.946L28.5884 11.1734C29.0167 11.0817 29.4259 10.971 29.8159 10.8412L30.4354 10.635L30.5042 10.612L30.5386 10.6006L30.5615 10.5891L30.5845 10.5777L30.6074 10.5662L30.6304 10.5548L30.6763 10.5479L30.7221 10.5433V10.5891L30.7107 10.5937L30.6992 10.6006L30.6946 10.6075L30.6877 10.612L30.6808 10.6166L30.6763 10.6235L30.6717 10.6304L30.6648 10.635L30.6579 10.6395L30.6533 10.6464L30.6488 10.6533L30.6418 10.6579L30.6304 10.6808L30.6189 10.7037L30.612 10.7083C30.609 10.7129 30.5119 10.8427 30.3206 11.0978C30.1295 11.3544 30.0262 11.4842 30.0109 11.4873C29.9956 11.4918 29.9742 11.5147 29.9467 11.556C29.9207 11.5987 29.7585 11.7691 29.4603 12.0669C29.162 12.3648 28.8699 12.6298 28.5839 12.8619C28.2963 13.0956 28.151 13.3828 28.148 13.7234C28.1434 14.0625 28.1258 14.4459 28.0952 14.8736C28.0646 15.3012 28.0072 15.7633 27.9231 16.2597C27.839 16.7561 27.709 17.3174 27.5331 17.9437C27.3572 18.5699 27.143 19.1809 26.8907 19.7766C26.6383 20.3723 26.3744 20.9069 26.0991 21.3804C25.8238 21.8539 25.5714 22.2548 25.342 22.5832C25.1126 22.9116 24.8793 23.2209 24.6422 23.5111C24.4052 23.8013 24.1054 24.1282 23.7429 24.4917C23.3789 24.8537 23.18 25.0523 23.1464 25.0874C23.1112 25.121 22.9613 25.2463 22.6967 25.4632C22.4336 25.6816 22.1506 25.9 21.8478 26.1184C21.5465 26.3353 21.2696 26.5163 21.0172 26.6614C20.7649 26.8065 20.4605 26.9722 20.1041 27.1586C19.7493 27.3465 19.3653 27.5206 18.9524 27.681C18.5394 27.8414 18.1035 27.9903 17.6446 28.1278C17.1858 28.2652 16.7422 28.3721 16.3139 28.4485C15.8857 28.5249 15.4 28.5898 14.857 28.6433L14.0426 28.7234V28.7349H12.5513V28.7234L12.3562 28.712C12.2263 28.7044 12.1192 28.6967 12.035 28.6891C11.9509 28.6815 11.6335 28.6394 11.0829 28.5631C10.5323 28.4867 10.1002 28.4103 9.78663 28.334C9.47309 28.2576 9.00656 28.1125 8.3871 27.8986C7.76764 27.6848 7.23766 27.4687 6.79715 27.2502C6.35818 27.0333 6.08286 26.8959 5.9712 26.8378C5.86107 26.7813 5.73718 26.7111 5.59952 26.6271L5.39304 26.501L5.38847 26.4942L5.38156 26.4896L5.37468 26.485L5.37009 26.4781L5.34715 26.4667L5.32421 26.4552L5.31964 26.4484L5.31273 26.4438L5.30585 26.4392L5.30126 26.4323L5.2967 26.4254L5.28979 26.4209H5.27832V26.375L5.30126 26.3796L5.32421 26.3865L5.42745 26.3979C5.49628 26.4056 5.68365 26.417 5.98955 26.4323C6.29548 26.4476 6.62049 26.4476 6.96463 26.4323C7.30878 26.417 7.66059 26.3827 8.02001 26.3292C8.37946 26.2758 8.80391 26.1841 9.29335 26.0543C9.78282 25.9244 10.2325 25.7702 10.6424 25.5915C11.0508 25.4112 11.3414 25.2768 11.5143 25.1882C11.6856 25.1012 11.9471 24.9393 12.2989 24.7025L12.8266 24.3474L12.8312 24.3405L12.8381 24.3359L12.845 24.3313L12.8495 24.3245L12.8541 24.3176L12.861 24.313L12.8679 24.3084L12.8725 24.3016L12.8954 24.2947L12.9184 24.2901L12.9229 24.2672L12.9298 24.2443L12.9367 24.2397L12.9413 24.2328L12.7577 24.2214C12.6354 24.2137 12.5168 24.2061 12.4021 24.1985C12.2874 24.1908 12.1077 24.1565 11.863 24.0954C11.6183 24.0343 11.3544 23.9426 11.0714 23.8204C10.7885 23.6982 10.5132 23.5531 10.2455 23.3851C9.97783 23.2171 9.78433 23.0773 9.66503 22.9658C9.54726 22.8558 9.3943 22.7001 9.20617 22.4984C9.01957 22.2953 8.85743 22.0868 8.71978 21.873C8.58212 21.6591 8.45058 21.4124 8.32518 21.1329L8.13473 20.7159L8.12326 20.6816L8.11179 20.6472L8.1049 20.6243L8.10031 20.6014L8.13473 20.606L8.16914 20.6128L8.42152 20.6472C8.58978 20.6701 8.85363 20.6777 9.21305 20.6701C9.5725 20.6625 9.82104 20.6472 9.9587 20.6243C10.0964 20.6014 10.1805 20.5861 10.2111 20.5785L10.257 20.567L10.3143 20.5556L10.3717 20.5441L10.3763 20.5372L10.3831 20.5326L10.3901 20.5281L10.3946 20.5212L10.3487 20.5097L10.3028 20.4983L10.257 20.4868L10.2111 20.4754L10.1652 20.4639C10.1346 20.4563 10.0811 20.441 10.0046 20.4181C9.92812 20.3952 9.72163 20.3112 9.38512 20.1661C9.04864 20.021 8.78096 19.8797 8.58212 19.7422C8.38278 19.6043 8.19271 19.4536 8.01313 19.2909C7.83417 19.1259 7.63764 18.9136 7.42349 18.6539C7.20937 18.3943 7.01818 18.0926 6.84992 17.7489C6.68168 17.4053 6.55549 17.0769 6.47136 16.7637C6.38756 16.4524 6.33228 16.1342 6.30619 15.8129L6.26487 15.3318L6.28781 15.3364L6.31076 15.3432L6.3337 15.3547L6.35664 15.3661L6.37959 15.3776L6.40253 15.3891L6.75815 15.5494C6.99524 15.6564 7.28967 15.748 7.64145 15.8244C7.99326 15.9007 8.20356 15.9428 8.27239 15.9504L8.37563 15.9618H8.58212L8.57755 15.955L8.57065 15.9504L8.56376 15.9458L8.55917 15.9389L8.55461 15.9321L8.5477 15.9275L8.54082 15.9229L8.53623 15.916L8.51329 15.9046L8.49035 15.8931L8.48578 15.8862L8.47887 15.8816L8.47199 15.8771L8.4674 15.8702L8.44446 15.8587L8.42152 15.8473L8.41695 15.8404C8.41236 15.8373 8.34658 15.7885 8.21962 15.6938C8.09419 15.5975 7.96266 15.4731 7.825 15.3203C7.68734 15.1676 7.54968 15.0072 7.41202 14.8392C7.27411 14.6708 7.15128 14.4906 7.04493 14.3008C6.93788 14.1098 6.82468 13.867 6.70538 13.5722C6.58761 13.2789 6.49813 12.9834 6.43694 12.6855C6.37578 12.3877 6.34136 12.0936 6.3337 11.8034C6.32606 11.5132 6.3337 11.265 6.35664 11.0588C6.37959 10.8526 6.42547 10.6197 6.4943 10.36C6.56313 10.1004 6.66257 9.82543 6.79256 9.53521L6.98758 9.0999L6.99905 9.06553L7.01052 9.03116L7.01743 9.02658L7.02199 9.01971L7.02658 9.01283L7.03346 9.00825L7.04037 9.01283L7.04493 9.01971L7.04952 9.02658L7.05641 9.03116L7.06331 9.03574L7.06788 9.04262L7.07247 9.04949L7.07935 9.05407L7.09082 9.07698L7.10229 9.0999L7.1092 9.10448L7.11376 9.11135L7.42349 9.45502C7.62998 9.68413 7.87471 9.93999 8.15767 10.2226C8.44065 10.5051 8.59742 10.6517 8.628 10.6624C8.65861 10.6747 8.69683 10.7098 8.74272 10.7678C8.7886 10.8244 8.94157 10.9595 9.20158 11.1734C9.46162 11.3872 9.80193 11.6354 10.2225 11.918C10.6432 12.2006 11.1097 12.4793 11.6221 12.7543C12.1345 13.0292 12.6851 13.2774 13.274 13.4989C13.8628 13.7204 14.2758 13.8655 14.5129 13.9342C14.75 14.0029 15.1553 14.0907 15.7289 14.1977C16.3024 14.3046 16.7346 14.3733 17.0252 14.4039C17.3158 14.4344 17.5146 14.452 17.6217 14.4566L17.7823 14.4611L17.7777 14.4268L17.7708 14.3924L17.7249 14.106C17.6943 13.9151 17.679 13.6478 17.679 13.3041C17.679 12.9605 17.7058 12.6435 17.7593 12.3533C17.8129 12.0631 17.8932 11.7691 18.0002 11.4712C18.1073 11.1734 18.2121 10.9343 18.3146 10.7541C18.4186 10.5754 18.5547 10.3715 18.7229 10.1424C18.8912 9.91325 19.1092 9.6765 19.3768 9.43211C19.6445 9.18771 19.9504 8.97006 20.2945 8.77914C20.6387 8.58822 20.9561 8.4431 21.2467 8.34382C21.5373 8.24455 21.782 8.17962 21.9809 8.14908C22.1797 8.11853 22.2791 8.10096 22.2791 8.09638Z" fill="white"/>
</g>
</svg>
